<svg xmlns="http://www.w3.org/2000/svg" width="92" height="38" viewBox="0 0 92 38" fill="none"><path d="M36.7262 22.0649V22.0627H34.385V22.0649H31.6459L26.1991 13.8264L24.7949 15.952L23.302 18.212L23.0264 17.795L22.7148 17.3254L19.4894 12.4442L19.4199 12.3387L17.6639 9.68113L17.2901 10.2466L16.4105 11.5763L15.682 12.6762L12.3655 17.6917L10.6207 15.0529L5.79688 22.3497H0.398093C0.400537 22.3759 0.407688 22.3999 0.412485 22.4263C0.426877 22.4987 0.443623 22.5701 0.460459 22.6421C0.470054 22.6851 0.479648 22.7283 0.489243 22.7688C0.505989 22.8431 0.522734 22.915 0.541924 22.9869C0.599493 23.2241 0.664122 23.459 0.731195 23.6938C0.764777 23.8114 0.800711 23.9286 0.836646 24.0436C0.867784 24.1443 0.901366 24.245 0.932504 24.3431C0.963642 24.4438 0.997224 24.5445 1.03316 24.6427H1.0356C1.30979 25.4285 1.63723 26.1948 2.01563 26.9361C2.01807 26.9409 2.02043 26.9432 2.02287 26.948C2.09474 27.0893 2.16905 27.2308 2.24572 27.3698L2.33914 27.5418C2.4254 27.6929 2.51175 27.8438 2.60037 27.9924C2.61711 28.0187 2.6315 28.0451 2.64825 28.0714C2.7489 28.2392 2.852 28.4069 2.95981 28.5723C2.96696 28.5819 2.97176 28.5914 2.979 28.601C3.07721 28.7548 3.18022 28.9053 3.28567 29.0563C3.30006 29.0802 3.31681 29.1015 3.33093 29.1258C3.44365 29.2839 3.55628 29.4397 3.66883 29.5931C3.67591 29.6005 3.68233 29.6086 3.68802 29.6171C3.81021 29.78 3.93486 29.943 4.0642 30.1011C4.19364 30.264 4.32779 30.4247 4.46438 30.5852C4.46768 30.5905 4.47173 30.5954 4.47642 30.5996C4.60821 30.7529 4.74239 30.9038 4.87894 31.0521C5.02033 31.2055 5.16172 31.3541 5.30555 31.5027C5.30791 31.5051 5.3127 31.5099 5.31515 31.5118C5.44187 31.6412 5.57158 31.7683 5.70093 31.893C5.72971 31.9193 5.75841 31.9481 5.78719 31.9744C5.92858 32.1087 6.07232 32.2405 6.2185 32.3727C6.22095 32.375 6.22095 32.375 6.2233 32.3775C6.37664 32.5141 6.53486 32.6483 6.69299 32.78C6.85357 32.9143 7.0165 33.0461 7.18178 33.173C7.32317 33.2833 7.46456 33.3912 7.61074 33.4989C7.82635 33.6548 8.04685 33.8081 8.2697 33.9591C8.38475 34.0358 8.49971 34.1101 8.6172 34.1844C8.67703 34.2228 8.73695 34.261 8.79688 34.2969C9.40706 34.6762 10.0392 35.0191 10.6899 35.3238C10.7977 35.3764 10.9079 35.4267 11.0182 35.4747C11.2387 35.573 11.4591 35.6664 11.6844 35.7553C11.7922 35.7985 11.9 35.8417 12.0102 35.882C12.2403 35.9683 12.4728 36.0522 12.7072 36.1289C12.8249 36.1673 12.9444 36.2054 13.0643 36.2415C13.1577 36.2726 13.2512 36.3014 13.3471 36.3277C13.4789 36.366 13.6106 36.4044 13.7424 36.438C13.7999 36.4547 13.855 36.4691 13.9125 36.4832C13.9317 36.488 13.9487 36.4928 13.9676 36.4976C14.1138 36.536 14.26 36.5694 14.4086 36.603C14.55 36.6366 14.6938 36.6677 14.8375 36.6941C14.8633 36.702 14.8898 36.7076 14.9166 36.7109C14.9405 36.718 14.967 36.7228 14.9909 36.7276H15.0004C15.7539 36.8736 16.5157 36.972 17.2815 37.0224V37.0247L17.4181 37.032C17.7872 37.0535 18.1561 37.0655 18.5324 37.0655C18.693 37.0655 18.8511 37.0631 19.0093 37.0583C19.1506 37.0559 19.2944 37.0511 19.4334 37.0439C19.8935 37.0224 20.3488 36.9816 20.7993 36.9262C20.8927 36.9166 20.9838 36.9045 21.0773 36.89C21.13 36.8828 21.1851 36.8756 21.2379 36.8684C21.3337 36.854 21.4296 36.8397 21.523 36.8231C21.7099 36.7943 21.8941 36.7609 22.0789 36.7248C22.1412 36.7129 22.2036 36.7009 22.2682 36.6865C22.587 36.6218 22.9033 36.5475 23.2148 36.4661C23.3324 36.4349 23.4501 36.4038 23.567 36.3703C23.8929 36.2791 24.2165 36.1762 24.5351 36.0659C24.6574 36.0251 24.7772 35.9821 24.8972 35.9391C25.029 35.8913 25.1584 35.8433 25.2854 35.7931C25.5969 35.6684 25.906 35.539 26.2104 35.3999C26.3281 35.3472 26.4452 35.2922 26.5602 35.2347C26.6824 35.1771 26.8022 35.117 26.9223 35.0549C27.0709 34.9783 27.2218 34.9016 27.3681 34.8201C27.4948 34.7506 27.6221 34.6811 27.7467 34.6093C28.1373 34.384 28.5231 34.1444 28.8969 33.8904C29.0167 33.8089 29.1365 33.725 29.2539 33.6411C29.3716 33.5596 29.4864 33.4758 29.599 33.3919C29.608 33.3832 29.6176 33.3752 29.6278 33.3679C29.7428 33.2817 29.8554 33.1954 29.968 33.1068C30.0519 33.0421 30.1334 32.9773 30.2149 32.9102C30.3687 32.7856 30.5192 32.6567 30.6702 32.5244C30.7781 32.4333 30.8835 32.3398 30.9865 32.2438C31.0968 32.1455 31.2046 32.0425 31.3124 31.9417C31.4202 31.8388 31.5256 31.7357 31.6311 31.6303C31.7198 31.5416 31.8061 31.4554 31.8923 31.3643C31.9163 31.338 31.9426 31.3116 31.969 31.2829C32.0625 31.1848 32.1536 31.0865 32.2446 30.9858C32.5297 30.6742 32.8029 30.3531 33.0642 30.0225C33.0833 29.9985 33.1024 29.9745 33.1216 29.9482C33.2079 29.838 33.2942 29.7253 33.3781 29.6127C33.4595 29.5049 33.541 29.3946 33.6177 29.2844C33.7854 29.052 33.9483 28.8148 34.1041 28.5727C34.164 28.4816 34.2218 28.3906 34.2791 28.2971C34.3198 28.2348 34.3581 28.1704 34.394 28.1077C34.4516 28.0168 34.5043 27.9233 34.5594 27.8322C34.6553 27.6693 34.7463 27.504 34.8374 27.3385C34.9044 27.2141 34.9692 27.0893 35.0339 26.9624C35.089 26.857 35.1417 26.7542 35.192 26.6461C35.2304 26.5693 35.2687 26.4903 35.3023 26.4136C35.5203 25.9583 35.7168 25.4958 35.8917 25.0214C35.9301 24.9231 35.9661 24.8248 35.9996 24.7266C36.007 24.7094 36.0134 24.6919 36.0188 24.674L36.1266 24.3572C36.1817 24.1895 36.2369 24.0217 36.2872 23.8516C36.3015 23.8108 36.3135 23.7691 36.3234 23.727C36.3666 23.5808 36.4072 23.4346 36.4479 23.2861C36.4552 23.2621 36.46 23.2408 36.4648 23.2166C36.5055 23.0705 36.5414 22.9242 36.5749 22.7756C36.5797 22.754 36.5845 22.7349 36.5893 22.7134C36.611 22.6199 36.6325 22.5264 36.6517 22.4328C36.6588 22.404 36.6636 22.3777 36.6684 22.349C36.69 22.2579 36.7092 22.1644 36.726 22.0733C36.7269 22.0724 36.7276 22.0712 36.728 22.07C36.7284 22.0687 36.7285 22.0674 36.7284 22.0661C36.7279 22.0661 36.7275 22.066 36.7271 22.0658C36.7267 22.0656 36.7264 22.0653 36.7262 22.0649ZM33.5678 24.6698C33.5342 24.7535 33.4983 24.8399 33.4623 24.9233C33.3833 25.1079 33.2994 25.2925 33.2107 25.4769C33.17 25.5679 33.1245 25.659 33.0789 25.75C33.0333 25.8411 32.9879 25.9322 32.94 26.0208C32.8489 26.2004 32.7506 26.3779 32.6503 26.5528C32.552 26.7277 32.449 26.9027 32.3412 27.0728C32.2813 27.1686 32.2214 27.2646 32.1591 27.3604C32.0559 27.5185 31.9505 27.6742 31.8427 27.8276C31.7876 27.909 31.7277 27.993 31.6677 28.072C31.6103 28.1534 31.5501 28.2349 31.4881 28.314C31.306 28.5536 31.119 28.7885 30.9249 29.0185C30.8603 29.0952 30.7955 29.1724 30.7285 29.2461C30.5967 29.3971 30.4624 29.5433 30.3235 29.6896C30.2782 29.7399 30.2276 29.7903 30.1797 29.8407C30.0886 29.9341 29.9952 30.0276 29.9017 30.1186C29.8298 30.1905 29.7579 30.2599 29.686 30.3267L29.4488 30.5496C29.305 30.679 29.1592 30.806 29.0126 30.9282C28.9408 30.9905 28.8713 31.0504 28.7994 31.108C28.3082 31.5095 27.7938 31.8816 27.2586 32.2223C27.1699 32.2797 27.0813 32.3373 26.9926 32.3923C26.6739 32.5865 26.348 32.7702 26.015 32.9435C25.9359 32.9842 25.8592 33.025 25.7796 33.0633C25.7533 33.0777 25.727 33.0896 25.7006 33.104C25.6287 33.1376 25.5568 33.1735 25.4849 33.2071C25.2453 33.3221 25.0033 33.4298 24.7564 33.5329C24.6678 33.5691 24.5791 33.6054 24.488 33.6408C24.3467 33.696 24.2053 33.7511 24.0615 33.8014C23.9536 33.8421 23.8435 33.8805 23.7357 33.9164C23.4841 34.0027 23.2301 34.0818 22.9736 34.1537C22.8635 34.1872 22.7509 34.216 22.6406 34.2448C22.5256 34.2758 22.4082 34.3046 22.2931 34.3309C22.2093 34.3525 22.1229 34.3717 22.0391 34.3884C21.9529 34.41 21.8666 34.4292 21.7779 34.446C21.6532 34.4723 21.5286 34.4963 21.4041 34.5179C21.2938 34.537 21.1812 34.5562 21.071 34.5731C21.0159 34.5827 20.9631 34.5898 20.9105 34.597C20.8074 34.6138 20.7023 34.628 20.5989 34.64C20.5126 34.652 20.4264 34.6616 20.3401 34.6712C20.2706 34.6808 20.2012 34.688 20.1319 34.6928C19.8683 34.7192 19.6048 34.7381 19.3364 34.7527C19.2237 34.7575 19.1087 34.7623 18.996 34.7647C18.972 34.767 18.9482 34.767 18.9266 34.767C18.7947 34.7695 18.6654 34.7718 18.5336 34.7718C18.349 34.7718 18.1669 34.7695 17.9848 34.7623C17.8219 34.7575 17.6589 34.7503 17.496 34.7384C17.4241 34.7359 17.3546 34.7288 17.2826 34.724C16.5151 34.6659 15.7527 34.5521 15.0016 34.3837C14.2204 34.2125 13.4537 33.981 12.7084 33.6912C12.6054 33.6528 12.5047 33.6121 12.4017 33.5689C12.3274 33.5402 12.2531 33.509 12.1812 33.4778C11.9821 33.3916 11.7829 33.3029 11.5893 33.2094C11.4983 33.1687 11.4072 33.1257 11.3161 33.0777C11.2251 33.0325 11.134 32.9867 11.0453 32.9387C10.9615 32.898 10.8776 32.8548 10.7961 32.8069C10.7746 32.7949 10.7529 32.7829 10.729 32.7707C10.5685 32.6822 10.4103 32.5935 10.2521 32.4976C10.0796 32.397 9.90706 32.2894 9.73933 32.1789C9.65304 32.1262 9.56916 32.0711 9.4877 32.0135C9.40388 31.956 9.31997 31.9009 9.23851 31.841C9.15469 31.7859 9.07313 31.7284 8.99411 31.666C8.83353 31.5535 8.6754 31.4337 8.51962 31.309C8.51482 31.3042 8.51003 31.3018 8.50523 31.297C8.42856 31.2395 8.35189 31.1793 8.27758 31.115C8.20091 31.0526 8.12424 30.9882 8.04758 30.9232C7.97091 30.8609 7.89415 30.7964 7.81993 30.7267C7.66895 30.5973 7.52276 30.4631 7.37639 30.3218C7.30208 30.2546 7.22786 30.1852 7.15834 30.1136C7.08647 30.0418 7.01695 29.9723 6.94743 29.9004C6.87321 29.8309 6.80605 29.7589 6.73925 29.6846C6.66738 29.608 6.59551 29.5314 6.52599 29.4546C6.45647 29.3827 6.3942 29.311 6.33427 29.239C6.19768 29.088 6.06825 28.937 5.94605 28.7813C5.87897 28.7046 5.8167 28.6255 5.75678 28.5464C5.44766 28.151 5.15529 27.7438 4.88211 27.3194C4.82934 27.2357 4.77431 27.1493 4.72154 27.066C4.24277 26.2941 3.82919 25.4837 3.48508 24.6432H7.03162L10.6213 19.2108L12.3658 21.8516L17.3573 14.3008L17.597 13.9414L17.6616 13.8407L17.8342 14.0971L18.0139 14.3704L18.0451 14.4181L21.1148 19.0598L22.38 20.9721L23.3026 22.3692L25.6561 18.8059L26.2 17.9839L26.4133 18.3074L30.4143 24.3581H33.6923C33.654 24.4613 33.611 24.5663 33.5678 24.6698ZM18.5333 0C18.3342 0 18.135 0.00235378 17.939 0.0119486C17.8123 0.0144227 17.6853 0.0192198 17.558 0.0263404C17.0451 0.0527713 16.5352 0.100654 16.034 0.167818C15.9045 0.184563 15.7752 0.204025 15.6481 0.225206C15.4948 0.249193 15.3391 0.275533 15.188 0.301873C15.176 0.304317 15.1665 0.306761 15.1569 0.309115C15.0083 0.335455 14.8621 0.364239 14.7159 0.395377C14.5194 0.4362 14.3254 0.48164 14.1313 0.529614C13.9994 0.560661 13.8701 0.594243 13.7383 0.630178C13.6496 0.651811 13.561 0.678152 13.4722 0.702139C13.3093 0.750022 13.1464 0.797996 12.9858 0.848324C12.8133 0.900914 12.6432 0.958482 12.4754 1.0184C12.4575 1.0229 12.4399 1.02852 12.4227 1.03524C11.6369 1.30948 10.8707 1.63694 10.1294 2.01536C10.1203 2.02015 10.1126 2.02495 10.103 2.02975C9.97124 2.09682 9.83709 2.16625 9.70765 2.24056C9.6022 2.29569 9.49946 2.35326 9.39618 2.41318C9.33147 2.44667 9.26946 2.48505 9.20682 2.52343C9.11332 2.57602 9.02226 2.63114 8.9312 2.68636C8.80185 2.76312 8.67486 2.84205 8.54786 2.92596C8.45201 2.98832 8.35615 3.0506 8.26029 3.11532C8.21673 3.14104 8.17507 3.16987 8.13565 3.20158C8.03979 3.26395 7.94393 3.33093 7.85052 3.39809C7.59409 3.57541 7.34245 3.76468 7.09806 3.95884C7.007 4.0308 6.91594 4.10258 6.82487 4.1769C6.7626 4.22722 6.70032 4.27755 6.63796 4.33268C6.56129 4.39486 6.48698 4.4594 6.41275 4.5243C6.30006 4.62025 6.1899 4.71846 6.07965 4.82147C5.98135 4.91017 5.88549 4.99879 5.79 5.08994C5.76833 5.10722 5.7483 5.12646 5.73017 5.14742C5.62951 5.24083 5.53103 5.33913 5.43535 5.43499C5.24128 5.62906 5.05198 5.82792 4.86745 6.03159C4.84415 6.05148 4.82325 6.07402 4.80517 6.09875C4.73566 6.17297 4.66859 6.24738 4.60387 6.32405C4.53682 6.39827 4.47213 6.47255 4.4098 6.5469C4.35223 6.61397 4.29475 6.68349 4.23718 6.75291C4.13897 6.87059 4.04311 6.98826 3.95205 7.10765C3.89693 7.17943 3.8418 7.24895 3.78668 7.32082C3.7292 7.39513 3.67408 7.46935 3.61895 7.54367C3.55432 7.63238 3.4896 7.72108 3.42724 7.80961C3.33862 7.9319 3.25236 8.054 3.17089 8.17874C3.11097 8.26735 3.05105 8.35606 2.99357 8.44712C2.95736 8.49745 2.92641 8.54777 2.89527 8.59801C2.8234 8.70826 2.75388 8.81851 2.68708 8.9312C2.45463 9.30983 2.23658 9.70059 2.03292 10.0982C2.03292 10.1006 2.03047 10.103 2.03047 10.1054C1.96575 10.2321 1.90112 10.3642 1.83876 10.4936C1.76924 10.6326 1.70217 10.7742 1.63962 10.9152C1.57735 11.0519 1.51742 11.1885 1.45985 11.3275C1.39993 11.4665 1.34218 11.6055 1.28498 11.7468C1.237 11.8763 1.18668 12.0033 1.13879 12.1326C1.13399 12.1446 1.13164 12.1566 1.12684 12.1688C1.07407 12.3102 1.02374 12.454 0.975861 12.5953C0.937482 12.7056 0.901547 12.8183 0.867965 12.9284C0.808043 13.1082 0.752949 13.2903 0.702682 13.4748C0.661949 13.6185 0.621216 13.7624 0.58501 13.9085C0.517846 14.1673 0.455571 14.4309 0.400446 14.6969C0.3837 14.7687 0.369308 14.8382 0.35736 14.9102C0.333373 15.0252 0.312102 15.1403 0.290197 15.2576C0.26621 15.3943 0.242313 15.5308 0.22068 15.6698C0.208731 15.7561 0.19434 15.8423 0.184473 15.9286C0.153336 16.1299 0.129349 16.3336 0.107806 16.5372C0.100655 16.602 0.093413 16.6666 0.0886156 16.7337C0.0743139 16.8584 0.0647196 16.9854 0.0551248 17.1099C0.0430861 17.249 0.0334912 17.388 0.0263404 17.5293C0.0263404 17.5509 0.0238964 17.5725 0.0238964 17.5965C0.0167456 17.7474 0.009595 17.9008 0.00715104 18.0566C0.00244417 18.2146 0 18.3728 0 18.5333C0 18.7035 0.00244417 18.8713 0.00715104 19.0414C0.0119484 19.1972 0.0167456 19.3529 0.0263404 19.5063C0.0359352 19.6908 0.047883 19.8753 0.0647192 20.0575H2.36511C2.35796 19.9928 2.35081 19.9308 2.34837 19.8657C2.33398 19.7147 2.32438 19.5638 2.31723 19.4104C2.30999 19.2883 2.30519 19.1637 2.30039 19.0393V19.0105C2.29569 18.8524 2.29324 18.6942 2.29324 18.5336C2.29324 18.3564 2.29569 18.1789 2.30284 18.0041C2.30284 17.9777 2.30284 17.9537 2.30519 17.9298C2.30764 17.8122 2.31479 17.6945 2.32203 17.5775C2.32682 17.4984 2.33162 17.4193 2.33877 17.3403C2.35796 17.0455 2.38675 16.7556 2.42504 16.4681C2.43228 16.3957 2.44423 16.3218 2.45382 16.25C2.47301 16.111 2.49455 15.9744 2.51854 15.8355C2.54488 15.6725 2.57366 15.5119 2.60716 15.3514C2.65241 15.1214 2.70301 14.8961 2.75814 14.6709C2.78448 14.5558 2.81571 14.4407 2.84684 14.3282C2.85399 14.2994 2.86124 14.273 2.86839 14.2443C2.91147 14.0885 2.957 13.9304 3.00498 13.777C3.05023 13.6284 3.09839 13.4775 3.14872 13.3289C3.15596 13.3073 3.16311 13.2881 3.17035 13.2665C3.22068 13.1181 3.27336 12.967 3.33084 12.8208C3.34043 12.7968 3.35003 12.7728 3.35962 12.749C3.41475 12.6004 3.47231 12.4543 3.53459 12.308V12.3057C3.59687 12.1547 3.66131 12.0037 3.7311 11.8552C3.73825 11.8408 3.74305 11.8264 3.7502 11.812C3.81972 11.6611 3.88924 11.5101 3.9659 11.3615C4.03777 11.2129 4.11444 11.0668 4.1912 10.9207C4.19815 10.9102 4.20378 10.8989 4.20794 10.8871C4.36852 10.5898 4.5386 10.2951 4.71592 10.0075C4.80698 9.8638 4.89804 9.71788 4.9939 9.57622C5.08741 9.43239 5.18317 9.2911 5.28356 9.15206C5.3939 8.99864 5.50405 8.84774 5.62145 8.69676C5.71251 8.57466 5.80602 8.45481 5.90423 8.33469C6.11749 8.06867 6.34278 7.8097 6.57279 7.55824C6.68783 7.43369 6.80523 7.30905 6.92508 7.18712C7.16468 6.94273 7.40916 6.70539 7.66315 6.47783C7.78987 6.3627 7.91959 6.25018 8.04893 6.13994C8.17828 6.02969 8.31016 5.92179 8.4444 5.81643C8.56895 5.71577 8.69595 5.61992 8.82294 5.52397C8.84213 5.50976 8.86368 5.49292 8.88531 5.47871C9.00986 5.38285 9.1393 5.29179 9.26865 5.20309C9.38632 5.12162 9.50399 5.04016 9.62329 4.96349C9.67842 4.92728 9.73119 4.89162 9.78622 4.85559C9.89892 4.78372 10.014 4.71194 10.1289 4.64242V4.63998C10.8616 4.19636 11.6285 3.81175 12.4223 3.48978V3.48734C13.1668 3.18331 13.9334 2.93659 14.7155 2.74936C14.7418 2.74212 14.7658 2.73497 14.7898 2.73017C14.9192 2.69894 15.0462 2.67025 15.1779 2.6439C15.3314 2.61032 15.4872 2.5791 15.6428 2.55275C15.7986 2.52415 15.9568 2.49763 16.115 2.47382C16.2326 2.45699 16.3498 2.44024 16.4673 2.42585C16.5703 2.41146 16.6755 2.39942 16.7787 2.38964C16.8339 2.3824 16.889 2.3776 16.9441 2.37045C17.0375 2.36086 17.1334 2.35371 17.2269 2.34647C17.27 2.34167 17.3131 2.33923 17.3562 2.33687C17.4569 2.32972 17.5599 2.32248 17.6606 2.31768C17.7948 2.31053 17.9266 2.30329 18.0607 2.30094C18.2165 2.29614 18.3747 2.29379 18.5329 2.29379C27.4879 2.29379 34.7727 9.57858 34.7727 18.5335C34.7727 18.8139 34.7655 19.092 34.7511 19.3676C34.744 19.5017 34.7367 19.6383 34.7248 19.77H37.0228C37.0324 19.6551 37.0396 19.5424 37.0444 19.4274C37.0516 19.2886 37.0564 19.1496 37.0588 19.0104C37.0635 18.8523 37.066 18.6941 37.066 18.5335C37.0664 8.31487 28.7512 0 18.5333 0Z" fill="#549EF7"></path><path d="M42.066 21.2819V2.89783H45.9528V11.0037H46.1952L52.811 2.89783H57.4698L50.6476 11.1294L57.5506 21.2819H52.9007L47.8649 13.7236L45.9528 16.0575V21.2819H42.066Z" fill="#383838"></path><path d="M59.3863 21.2819V18.4812L65.9303 12.422C66.4868 11.8834 66.9536 11.3987 67.3306 10.9678C67.7136 10.5369 68.0038 10.115 68.2013 9.70209C68.3988 9.28318 68.4976 8.83136 68.4976 8.34662C68.4976 7.80803 68.3749 7.34423 68.1295 6.95525C67.8842 6.56028 67.549 6.25807 67.1241 6.04861C66.6992 5.83317 66.2175 5.72546 65.6789 5.72546C65.1164 5.72546 64.6257 5.83916 64.2067 6.06657C63.7878 6.29397 63.4647 6.62012 63.2373 7.04501C63.0099 7.46991 62.8962 7.97559 62.8962 8.56206H59.2068C59.2068 7.3592 59.4791 6.31492 60.0237 5.42923C60.5682 4.54354 61.3312 3.85832 62.3127 3.37359C63.2941 2.88885 64.4252 2.64648 65.7058 2.64648C67.0224 2.64648 68.1684 2.87988 69.1439 3.34666C70.1253 3.80746 70.8883 4.44779 71.4329 5.26765C71.9775 6.08751 72.2498 7.02706 72.2498 8.0863C72.2498 8.78049 72.1121 9.4657 71.8368 10.1419C71.5676 10.8182 71.0858 11.5692 70.3916 12.3951C69.6974 13.2149 68.719 14.1994 67.4563 15.3484L64.7723 17.9785V18.1042H72.4921V21.2819H59.3863Z" fill="#383838"></path><path d="M79.0608 2.89783L82.7681 9.16349H82.9117L86.637 2.89783H91.0266L85.4162 12.0899L91.1522 21.2819H86.6819L82.9117 15.0073H82.7681L78.9979 21.2819H74.5455L80.2995 12.0899L74.6533 2.89783H79.0608Z" fill="#383838"></path><path d="M42.556 26.4364V25.4921H49.1483V26.4364H46.3843V34.2819H45.32V26.4364H42.556Z" fill="#549EF7"></path><path d="M52.4616 34.4192C51.8264 34.4192 51.2785 34.279 50.8178 33.9986C50.36 33.7154 50.0067 33.3205 49.7577 32.8141C49.5117 32.3048 49.3886 31.7125 49.3886 31.0372C49.3886 30.362 49.5117 29.7668 49.7577 29.2518C50.0067 28.7339 50.3529 28.3305 50.7964 28.0415C51.2427 27.7497 51.7635 27.6037 52.3586 27.6037C52.702 27.6037 53.041 27.661 53.3758 27.7754C53.7105 27.8899 54.0153 28.0759 54.2899 28.3334C54.5646 28.588 54.7835 28.9256 54.9466 29.3462C55.1097 29.7668 55.1912 30.2847 55.1912 30.8999V31.3291H50.1097V30.4535H54.1612C54.1612 30.0816 54.0868 29.7497 53.938 29.4578C53.7921 29.166 53.5832 28.9357 53.3114 28.7668C53.0424 28.598 52.7248 28.5136 52.3586 28.5136C51.9552 28.5136 51.6061 28.6138 51.3114 28.8141C51.0195 29.0115 50.7949 29.269 50.6376 29.5866C50.4802 29.9042 50.4015 30.2447 50.4015 30.6081V31.1917C50.4015 31.6896 50.4874 32.1116 50.659 32.4578C50.8336 32.8012 51.0753 33.063 51.3844 33.2433C51.6934 33.4207 52.0525 33.5094 52.4616 33.5094C52.7277 33.5094 52.9681 33.4722 53.1826 33.3978C53.4001 33.3205 53.5875 33.2061 53.7449 33.0544C53.9023 32.8999 54.0239 32.7082 54.1097 32.4793L55.0882 32.754C54.9852 33.0859 54.8121 33.3777 54.5689 33.6295C54.3257 33.8785 54.0253 34.073 53.6676 34.2132C53.31 34.3506 52.908 34.4192 52.4616 34.4192Z" fill="#549EF7"></path><path d="M59.4101 34.4192C58.7921 34.4192 58.2599 34.2733 57.8136 33.9815C57.3672 33.6896 57.0239 33.2876 56.7835 32.7754C56.5432 32.2633 56.423 31.6782 56.423 31.0201C56.423 30.3505 56.546 29.7597 56.7921 29.2475C57.041 28.7325 57.3872 28.3305 57.8307 28.0415C58.2771 27.7497 58.7978 27.6037 59.393 27.6037C59.8565 27.6037 60.2742 27.6896 60.6462 27.8613C61.0182 28.0329 61.3229 28.2733 61.5604 28.5823C61.7979 28.8913 61.9452 29.2518 62.0024 29.6638H60.9896C60.9123 29.3634 60.7406 29.0973 60.4745 28.8656C60.2113 28.6309 59.8565 28.5136 59.4101 28.5136C59.0153 28.5136 58.6691 28.6166 58.3715 28.8226C58.0768 29.0258 57.8465 29.3133 57.6805 29.6853C57.5174 30.0544 57.4359 30.4879 57.4359 30.9857C57.4359 31.495 57.516 31.9385 57.6762 32.3162C57.8393 32.6939 58.0682 32.9872 58.3629 33.196C58.6605 33.4049 59.0096 33.5094 59.4101 33.5094C59.6734 33.5094 59.9123 33.4636 60.1269 33.372C60.3415 33.2805 60.5232 33.1488 60.672 32.9772C60.8207 32.8055 60.9266 32.5995 60.9896 32.3591H62.0024C61.9452 32.7483 61.8036 33.0988 61.5775 33.4106C61.3544 33.7197 61.0582 33.9657 60.6891 34.1488C60.3229 34.3291 59.8966 34.4192 59.4101 34.4192Z" fill="#549EF7"></path><path d="M64.496 30.3162V34.2819H63.4831V25.4921H64.496V28.7196H64.5818C64.7363 28.3791 64.9681 28.1088 65.2771 27.9085C65.589 27.7053 66.0039 27.6037 66.5218 27.6037C66.971 27.6037 67.3644 27.6939 67.702 27.8741C68.0397 28.0515 68.3015 28.3248 68.4874 28.6939C68.6763 29.0601 68.7707 29.5265 68.7707 30.093V34.2819H67.7578V30.1617C67.7578 29.6381 67.6219 29.2332 67.3501 28.9471C67.0811 28.6581 66.7077 28.5136 66.2299 28.5136C65.898 28.5136 65.6004 28.5837 65.3372 28.7239C65.0768 28.8641 64.8708 29.0687 64.7192 29.3377C64.5704 29.6066 64.496 29.9328 64.496 30.3162Z" fill="#549EF7"></path></svg>